<svg xmlns="http://www.w3.org/2000/svg" viewBox="0 0 32 40" x="0px" y="0px"><title>45-Artwork</title><g data-name="45-Artwork"><path d="M26,3a1,1,0,0,0-1-1H20V0H12V2H7A1,1,0,0,0,6,3V20H26ZM20.92,16.38A1,1,0,0,1,20,17H12a1,1,0,0,1-.92-.62,1,1,0,0,1,.21-1.09l3-3a1,1,0,0,1,1.42,0L17,13.59l.29-.3a1,1,0,0,1,1.42,0l2,2A1,1,0,0,1,20.92,16.38ZM19,11a2,2,0,1,1,2-2A2,2,0,0,1,19,11Z"/><path d="M27,22H4v2H6v1a1,1,0,0,0,1,1h4.59l-4.3,4.29,1.42,1.42L14.41,26H15v6h2V26h.59l5.7,5.71,1.42-1.42L20.41,26H25a1,1,0,0,0,1-1V24h2V22Z"/></g><text x="0" y="47" fill="#000000" font-size="5px" font-weight="bold" font-family="'Helvetica Neue', Helvetica, Arial-Unicode, Arial, Sans-serif">Created by Iconstock</text><text x="0" y="52" fill="#000000" font-size="5px" font-weight="bold" font-family="'Helvetica Neue', Helvetica, Arial-Unicode, Arial, Sans-serif">from the Noun Project</text></svg>